<?xml version="1.0" encoding="utf-8"?>
<!-- Generator: Adobe Illustrator 25.2.0, SVG Export Plug-In . SVG Version: 6.00 Build 0)  -->
<svg version="1.1" id="Layer_2" xmlns="http://www.w3.org/2000/svg" xmlns:xlink="http://www.w3.org/1999/xlink" x="0px" y="0px"
	 viewBox="0 0 300 99" style="enable-background:new 0 0 300 99;" xml:space="preserve">
<style type="text/css">
	.st0{fill:#FFFFFF;}
	.st1{fill:#B3B3B3;}
	.st2{font-family:'MyriadPro-Regular';}
	.st3{font-size:11px;}
	.st4{fill:none;stroke:#000000;stroke-miterlimit:10;}
</style>
<g>
	<rect x="13.3" y="24.5" class="st0" width="64" height="64"/>
	<path d="M76.8,25v63h-63V25H76.8 M77.8,24h-65v65h65V24L77.8,24z"/>
</g>
<g>
	<rect x="23.1" y="61.5" class="st0" width="44.4" height="8.4"/>
	<path d="M67,62v7.4H23.6V62H67 M68,61H22.6v9.4H68V61L68,61z"/>
</g>
<g>
	<rect x="23.1" y="74.7" class="st0" width="44.4" height="8.4"/>
	<path d="M67,75.2v7.4H23.6v-7.4H67 M68,74.2H22.6v9.4H68V74.2L68,74.2z"/>
</g>
<g>
	<rect x="23.1" y="33.7" class="st1" width="44.4" height="12.8"/>
	<path d="M67,34.2V46H23.6V34.2H67 M68,33.2H22.6V47H68V33.2L68,33.2z"/>
</g>
<text transform="matrix(1 0 0 1 13.2349 17.7979)" class="st2 st3">#1 &lt;hash&gt;</text>
<g>
	<rect x="113.8" y="25.5" class="st0" width="64" height="64"/>
	<path d="M177.3,26v63h-63V26H177.3 M178.3,25h-65v65h65V25L178.3,25z"/>
</g>
<g>
	<rect x="123.6" y="62.5" class="st0" width="44.4" height="8.4"/>
	<path d="M167.6,63v7.4h-43.4V63H167.6 M168.6,62h-45.4v9.4h45.4V62L168.6,62z"/>
</g>
<g>
	<rect x="123.6" y="75.7" class="st0" width="44.4" height="8.4"/>
	<path d="M167.6,76.2v7.4h-43.4v-7.4H167.6 M168.6,75.2h-45.4v9.4h45.4V75.2L168.6,75.2z"/>
</g>
<g>
	<rect x="123.6" y="34.7" class="st1" width="44.4" height="12.8"/>
	<path d="M167.6,35.2V47h-43.4V35.2H167.6 M168.6,34.2h-45.4V48h45.4V34.2L168.6,34.2z"/>
</g>
<text transform="matrix(1 0 0 1 113.8024 18.8358)" class="st2 st3">#2 &lt;hash&gt;</text>
<g>
	<g>
		<line class="st4" x1="123.5" y1="41.5" x2="73.4" y2="17.4"/>
		<g>
			<polygon points="75.5,15.1 69.5,15.5 72.9,20.4 			"/>
		</g>
	</g>
</g>
<g>
	<rect x="215.6" y="25.5" class="st0" width="64" height="64"/>
	<path d="M279.1,26v63h-63V26H279.1 M280.1,25h-65v65h65V25L280.1,25z"/>
</g>
<g>
	<rect x="225.4" y="62.5" class="st0" width="44.4" height="8.4"/>
	<path d="M269.3,63v7.4h-43.4V63H269.3 M270.3,62h-45.4v9.4h45.4V62L270.3,62z"/>
</g>
<g>
	<rect x="225.4" y="75.7" class="st0" width="44.4" height="8.4"/>
	<path d="M269.3,76.2v7.4h-43.4v-7.4H269.3 M270.3,75.2h-45.4v9.4h45.4V75.2L270.3,75.2z"/>
</g>
<g>
	<rect x="225.4" y="34.7" class="st1" width="44.4" height="12.8"/>
	<path d="M269.3,35.2V47h-43.4V35.2H269.3 M270.3,34.2h-45.4V48h45.4V34.2L270.3,34.2z"/>
</g>
<text transform="matrix(1 0 0 1 215.562 18.8357)" class="st2 st3">#3 &lt;hash&gt;</text>
<g>
	<g>
		<line class="st4" x1="225.3" y1="41.5" x2="175.1" y2="17.4"/>
		<g>
			<polygon points="177.2,15.1 171.3,15.5 174.6,20.4 			"/>
		</g>
	</g>
</g>
</svg>
