<?xml version="1.0" encoding="utf-8"?>
<!-- Generator: Adobe Illustrator 25.0.1, SVG Export Plug-In . SVG Version: 6.00 Build 0)  -->
<svg version="1.1" id="Layer_1" xmlns="http://www.w3.org/2000/svg" xmlns:xlink="http://www.w3.org/1999/xlink" x="0px" y="0px"
	 viewBox="0 0 300 100" style="enable-background:new 0 0 300 100;" xml:space="preserve">
<style type="text/css">
	.st0{fill:#ABABAB;}
	.st1{fill:none;stroke:#00B9F2;stroke-width:14;stroke-miterlimit:10;}
	.st2{fill:none;stroke:#00B9F2;stroke-width:3;stroke-miterlimit:10;}
</style>
<g>
	<path d="M65.1,66.8c0-9.6,6-12.9,11.1-12.9c3.1,0,6.5,1,8.8,4.6l-3.6,3c-1.4-1.9-3-3-5-3c-3.3,0-5.6,2.6-5.6,8.1
		c0,5,1.8,8.4,6.1,8.4c1.9,0,3.6-0.6,5.5-2l2.2,3.8c-1.9,1.5-4.8,2.7-8.4,2.7C69.2,79.5,65.1,74.9,65.1,66.8z"/>
	<path d="M94.3,45.4v11.3c1.6-1.9,4-2.8,6.5-2.8c5,0,7.7,2.8,7.7,8.4v16.4h-5.7V63.4c0-2.8-0.6-5-3.6-5c-2.7,0-4.8,2.3-4.8,4.8v15.7
		h-5.7V45.4H94.3z"/>
	<path d="M114.3,71V54.6h5.7V70c0,2.9,0.6,5.1,3.8,5.1c2.5,0,4.7-2.3,4.7-4.6V54.6h5.7v20.1l0.4,4h-4.9l-0.4-2.8h-0.1
		c-1.7,2.4-4.2,3.5-7,3.5C117,79.5,114.3,76.6,114.3,71z"/>
	<path d="M140.1,54.6h4.8l0.5,3c1.7-2.4,4.2-3.7,7.4-3.7c4.8,0,7.6,2.7,7.6,8.4v16.5h-5.7V63.5c0-2.9-0.5-5.2-3.6-5.2
		c-2.9,0-4.9,2.4-4.9,4.8v15.6h-5.7v-20L140.1,54.6z"/>
	<path d="M172,45.4v13.7h0.1c1.5-2.7,4.2-5.2,8.7-5.2c4.5,0,6.7,2.5,6.7,6.4c0,3.4-1.6,6.8-5.5,8.8l5.9,9.6h-6.6l-4.7-7.8
		c-1,0.2-3.5,0.4-4.7,0.5v7.3h-5.7V45.4H172z M181.8,61.4c0-1.8-1.1-2.8-3.2-2.8c-3.6,0-6.4,4.3-6.7,8.6
		C178.7,67,181.8,64.5,181.8,61.4z"/>
</g>
<g>
	<path class="st0" d="M208.6,69.3c0-7.2,4.5-9.7,8.3-9.7c2.3,0,4.9,0.7,6.6,3.4l-2.7,2.2c-1-1.4-2.2-2.2-3.8-2.2
		c-2.5,0-4.2,1.9-4.2,6.1c0,3.7,1.4,6.3,4.6,6.3c1.4,0,2.7-0.4,4.1-1.5l1.6,2.9c-1.4,1.2-3.6,2.1-6.3,2.1
		C211.7,78.8,208.6,75.4,208.6,69.3z"/>
	<path class="st0" d="M230.5,53.2v8.5c1.2-1.4,3-2.1,4.9-2.1c3.7,0,5.8,2.1,5.8,6.3v12.3h-4.3V66.7c0-2.1-0.4-3.8-2.7-3.8
		c-2.1,0-3.6,1.7-3.6,3.6v11.8h-4.3v-25H230.5z"/>
	<path class="st0" d="M244.7,70c0-6.3,3.1-10.4,9.3-10.4c1.2,0,3.9,0.3,6.4,1.3v13.9l0.4,3.5h-3.7l-0.3-1.9l-0.1,0
		c-1,1.4-2.6,2.5-5,2.5C246.3,78.8,244.7,74.7,244.7,70z M256.2,72.5v-9.3c-0.5-0.3-1.6-0.5-2.7-0.5c-3.4,0-4.6,3.2-4.6,7.1
		c0,3,0.8,5.8,3.7,5.8C255,75.6,256.2,74.1,256.2,72.5z"/>
	<path class="st0" d="M264.6,54.9c0-1.3,1-2.4,2.4-2.4c1.5,0,2.5,1,2.5,2.4c0,1.4-1,2.4-2.5,2.4C265.6,57.3,264.6,56.3,264.6,54.9z
		 M269.2,60.1v18.1h-4.3V60.1H269.2z"/>
	<path class="st0" d="M273.4,60.1h3.6l0.4,2.3c1.3-1.8,3.2-2.8,5.5-2.8c3.6,0,5.7,2,5.7,6.3v12.4h-4.3V66.8c0-2.2-0.4-3.9-2.7-3.9
		c-2.2,0-3.7,1.8-3.7,3.6v11.7h-4.2v-15L273.4,60.1z"/>
</g>
<line class="st1" x1="21" y1="79.5" x2="84.8" y2="15.7"/>
<line class="st2" x1="189.8" y1="69.6" x2="205.7" y2="69.6"/>
</svg>
