<svg xmlns="http://www.w3.org/2000/svg" viewBox="0 0 245.45 175.6"><defs><style>.a{fill:none;stroke:#00b9f2;stroke-miterlimit:10;stroke-width:2px;}</style></defs><path d="M217.28,149.15H183.62a2.89,2.89,0,0,0-2.89,2.89v25.43a2.89,2.89,0,0,0,2.89,2.89H196l-.7,2.43a2.66,2.66,0,0,1-2.39,1.8h-4.35a.58.58,0,0,0,0,1.16h23.88a.58.58,0,0,0,0-1.16H208a2.66,2.66,0,0,1-2.39-1.8l-.7-2.43h12.33a2.89,2.89,0,0,0,2.89-2.89V152A2.89,2.89,0,0,0,217.28,149.15Zm-33.66,1.16h33.66A1.74,1.74,0,0,1,219,152v20.23H181.88V152A1.74,1.74,0,0,1,183.62,150.31Zm20.92,32.8a3.57,3.57,0,0,0,.88,1.48h-9.94a3.57,3.57,0,0,0,.88-1.48l.79-2.75h6.6Zm12.74-3.91H183.62a1.74,1.74,0,0,1-1.74-1.73v-4.05H219v4.05A1.74,1.74,0,0,1,217.28,179.2Z" transform="translate(-29.9 -11.39)"/><path d="M184.19,162.44v-9.82h32.52V170H184.19v-7.52a.58.58,0,0,0-1.15,0v8.09a.58.58,0,0,0,.58.58h33.66a.58.58,0,0,0,.58-.58V152a.58.58,0,0,0-.58-.58H183.62a.58.58,0,0,0-.58.58v10.4" transform="translate(-29.9 -11.39)"/><path d="M200.45,174.58a1.74,1.74,0,1,0,1.73,1.73A1.73,1.73,0,0,0,200.45,174.58Zm0,2.62a1.25,1.25,0,0,1-.89-.89.89.89,0,0,1,1.78,0A1.25,1.25,0,0,1,200.45,177.2Z" transform="translate(-29.9 -11.39)"/><path d="M169.73,11.39H136.07a2.89,2.89,0,0,0-2.89,2.89V39.7a2.89,2.89,0,0,0,2.89,2.89H148.4L147.7,45a2.67,2.67,0,0,1-2.39,1.8H141A.58.58,0,0,0,141,48h23.88a.58.58,0,1,0,0-1.16h-4.35A2.67,2.67,0,0,1,158.1,45l-.7-2.44h12.33a2.89,2.89,0,0,0,2.89-2.89V14.28A2.89,2.89,0,0,0,169.73,11.39Zm-33.66,1.16h33.66a1.73,1.73,0,0,1,1.74,1.73V34.5H134.33V14.28A1.73,1.73,0,0,1,136.07,12.55ZM157,45.34a3.54,3.54,0,0,0,.88,1.49h-9.94a3.54,3.54,0,0,0,.88-1.49l.79-2.75h6.6Zm12.74-3.9H136.07a1.74,1.74,0,0,1-1.74-1.74v-4h37.14v4A1.74,1.74,0,0,1,169.73,41.44Z" transform="translate(-29.9 -11.39)"/><path d="M136.64,24.68V14.86h32.52V32.19H136.64V24.68a.58.58,0,1,0-1.15,0v8.09a.58.58,0,0,0,.58.58h33.66a.58.58,0,0,0,.58-.58V14.28a.58.58,0,0,0-.58-.58H136.07a.58.58,0,0,0-.58.58v10.4" transform="translate(-29.9 -11.39)"/><path d="M152.9,36.81a1.74,1.74,0,1,0,1.73,1.74A1.73,1.73,0,0,0,152.9,36.81Zm0,2.62a1.24,1.24,0,0,1-.89-.88.89.89,0,0,1,1.78,0A1.24,1.24,0,0,1,152.9,39.43Z" transform="translate(-29.9 -11.39)"/><path d="M272.46,82.72H238.79a2.9,2.9,0,0,0-2.89,2.89V111a2.9,2.9,0,0,0,2.89,2.89h12.33l-.69,2.43a2.67,2.67,0,0,1-2.4,1.8h-4.35a.58.58,0,0,0,0,1.16h23.89a.58.58,0,0,0,0-1.16h-4.36a2.67,2.67,0,0,1-2.39-1.8l-.69-2.43h12.33a2.9,2.9,0,0,0,2.89-2.89V85.61A2.9,2.9,0,0,0,272.46,82.72Zm-33.67,1.16h33.67a1.74,1.74,0,0,1,1.73,1.73v20.23H237.06V85.61A1.73,1.73,0,0,1,238.79,83.88Zm20.92,32.8a3.48,3.48,0,0,0,.89,1.48h-10a3.59,3.59,0,0,0,.89-1.48l.78-2.75h6.6Zm12.75-3.91H238.79a1.73,1.73,0,0,1-1.73-1.73V107h37.13V111A1.74,1.74,0,0,1,272.46,112.77Z" transform="translate(-29.9 -11.39)"/><path d="M239.37,96V86.19h32.51v17.34H239.37V96a.58.58,0,0,0-1.16,0v8.09a.58.58,0,0,0,.58.58h33.67a.58.58,0,0,0,.58-.58V85.61a.58.58,0,0,0-.58-.58H238.79a.58.58,0,0,0-.58.58V96" transform="translate(-29.9 -11.39)"/><path d="M255.62,108.15a1.74,1.74,0,1,0,1.74,1.73A1.74,1.74,0,0,0,255.62,108.15Zm0,2.62a1.24,1.24,0,0,1-.88-.89,1.23,1.23,0,0,1,.88-.88,1.24,1.24,0,0,1,.89.88A1.25,1.25,0,0,1,255.62,110.77Z" transform="translate(-29.9 -11.39)"/><path d="M66.46,82.72H32.79a2.9,2.9,0,0,0-2.89,2.89V111a2.9,2.9,0,0,0,2.89,2.89H45.12l-.69,2.43a2.67,2.67,0,0,1-2.4,1.8H37.68a.58.58,0,0,0,0,1.16H61.57a.58.58,0,0,0,0-1.16H57.21a2.67,2.67,0,0,1-2.39-1.8l-.69-2.43H66.46A2.9,2.9,0,0,0,69.35,111V85.61A2.9,2.9,0,0,0,66.46,82.72ZM32.79,83.88H66.46a1.74,1.74,0,0,1,1.73,1.73v20.23H31.06V85.61A1.73,1.73,0,0,1,32.79,83.88Zm20.92,32.8a3.48,3.48,0,0,0,.89,1.48h-10a3.59,3.59,0,0,0,.89-1.48l.78-2.75h6.6Zm12.75-3.91H32.79A1.73,1.73,0,0,1,31.06,111V107H68.19V111A1.74,1.74,0,0,1,66.46,112.77Z" transform="translate(-29.9 -11.39)"/><path d="M33.37,96V86.19H65.88v17.34H33.37V96a.58.58,0,0,0-1.16,0v8.09a.58.58,0,0,0,.58.58H66.46a.58.58,0,0,0,.58-.58V85.61a.58.58,0,0,0-.58-.58H32.79a.58.58,0,0,0-.58.58V96" transform="translate(-29.9 -11.39)"/><path d="M49.62,108.15a1.74,1.74,0,1,0,1.74,1.73A1.74,1.74,0,0,0,49.62,108.15Zm0,2.62a1.24,1.24,0,0,1-.88-.89,1.23,1.23,0,0,1,.88-.88,1.24,1.24,0,0,1,.89.88A1.25,1.25,0,0,1,49.62,110.77Z" transform="translate(-29.9 -11.39)"/><path d="M119.46,150.39H85.79a2.9,2.9,0,0,0-2.89,2.89V178.7a2.89,2.89,0,0,0,2.89,2.89H98.12L97.43,184a2.69,2.69,0,0,1-2.4,1.8H90.68a.58.58,0,0,0,0,1.16h23.89a.58.58,0,0,0,0-1.16h-4.36a2.69,2.69,0,0,1-2.39-1.8l-.69-2.44h12.33a2.89,2.89,0,0,0,2.89-2.89V153.28A2.9,2.9,0,0,0,119.46,150.39Zm-33.67,1.16h33.67a1.73,1.73,0,0,1,1.73,1.73V173.5H84.06V153.28A1.72,1.72,0,0,1,85.79,151.55Zm20.92,32.79a3.46,3.46,0,0,0,.89,1.49H97.65a3.56,3.56,0,0,0,.89-1.49l.78-2.75h6.6Zm12.75-3.9H85.79a1.73,1.73,0,0,1-1.73-1.74v-4h37.13v4A1.74,1.74,0,0,1,119.46,180.44Z" transform="translate(-29.9 -11.39)"/><path d="M86.37,163.68v-9.82h32.51v17.33H86.37v-7.51a.58.58,0,0,0-1.16,0v8.09a.58.58,0,0,0,.58.58h33.67a.58.58,0,0,0,.58-.58V153.28a.58.58,0,0,0-.58-.58H85.79a.58.58,0,0,0-.58.58v10.4" transform="translate(-29.9 -11.39)"/><path d="M102.62,175.81a1.74,1.74,0,1,0,1.74,1.74A1.74,1.74,0,0,0,102.62,175.81Zm0,2.62a1.23,1.23,0,0,1-.88-.88,1.24,1.24,0,0,1,.88-.89,1.25,1.25,0,0,1,.89.89A1.24,1.24,0,0,1,102.62,178.43Z" transform="translate(-29.9 -11.39)"/><path d="M168,122.05a2.42,2.42,0,0,0,2.16-2.4v-1.07h.07a2.41,2.41,0,0,0,2.4-2.41v-5.45a2.41,2.41,0,0,0-2.4-2.4h-.07v-2.17h.07a2.41,2.41,0,0,0,2.4-2.4V98.3a2.41,2.41,0,0,0-2.4-2.41h-.07V93.73h.07a2.41,2.41,0,0,0,2.4-2.41V85.87a2.41,2.41,0,0,0-2.4-2.41h-.07V82.39A2.41,2.41,0,0,0,167.74,80H137.5a2.41,2.41,0,0,0-2.4,2.41v1.07H135a2.41,2.41,0,0,0-2.41,2.41v5.45A2.41,2.41,0,0,0,135,93.73h.07v2.16H135a2.41,2.41,0,0,0-2.41,2.41v5.45a2.41,2.41,0,0,0,2.41,2.4h.07v2.17H135a2.41,2.41,0,0,0-2.41,2.4v5.45a2.41,2.41,0,0,0,2.41,2.41h.07v1.07a2.42,2.42,0,0,0,2.16,2.4m6.49,0H161.5M144,83.46h-7.56V82.39a1.09,1.09,0,0,1,1.09-1.09h30.24a1.09,1.09,0,0,1,1.1,1.09v1.07H144a.66.66,0,0,0,0,1.31h26.25a1.09,1.09,0,0,1,1.09,1.1v5.45a1.09,1.09,0,0,1-1.09,1.09H135a1.09,1.09,0,0,1-1.09-1.09V85.87a1.09,1.09,0,0,1,1.09-1.1H144m-5.4,37.29h3.86m20.38,0h3.87m-17.76-4.79H135a1.09,1.09,0,0,1-1.09-1.1v-5.45a1.09,1.09,0,0,1,1.09-1.09h35.19a1.09,1.09,0,0,1,1.09,1.09h0v5.45a1.09,1.09,0,0,1-1.09,1.1h-21.3a.66.66,0,0,0,0,1.31h19.92v1.07a1.1,1.1,0,0,1-1.1,1.1H137.5a1.09,1.09,0,0,1-1.09-1.1v-1.07h12.51m19.92-10.26H136.41v-2.17h32.43ZM155.91,95.89h-19.5V93.73h32.43v2.16H155.91a.66.66,0,0,0,0,1.31h14.31a1.09,1.09,0,0,1,1.09,1.1v5.45a1.09,1.09,0,0,1-1.09,1.09H135a1.09,1.09,0,0,1-1.09-1.09V98.3A1.09,1.09,0,0,1,135,97.2h20.88" transform="translate(-29.9 -11.39)"/><path d="M137.71,90.6h2.1a.66.66,0,0,0,0-1.32h-2.1a.66.66,0,1,0,0,1.32Z" transform="translate(-29.9 -11.39)"/><path d="M142.66,90.6h2.1a.66.66,0,0,0,0-1.32h-2.1a.66.66,0,1,0,0,1.32Z" transform="translate(-29.9 -11.39)"/><path d="M137.71,87.9h2.1a.66.66,0,0,0,0-1.31h-2.1a.66.66,0,1,0,0,1.31Z" transform="translate(-29.9 -11.39)"/><path d="M142.66,87.9h2.1a.66.66,0,1,0,0-1.31h-2.1a.66.66,0,1,0,0,1.31Z" transform="translate(-29.9 -11.39)"/><path d="M165.28,90.89a2.3,2.3,0,1,0-2.3-2.3A2.3,2.3,0,0,0,165.28,90.89Zm0-3.28a1,1,0,1,1-1,1A1,1,0,0,1,165.28,87.61Z" transform="translate(-29.9 -11.39)"/><path d="M156.46,90.89a2.3,2.3,0,1,0-2.3-2.3A2.3,2.3,0,0,0,156.46,90.89Zm0-3.28a1,1,0,0,1,0,2,1,1,0,1,1,0-2Z" transform="translate(-29.9 -11.39)"/><path d="M139.81,101.71h-2.1a.66.66,0,1,0,0,1.32h2.1a.66.66,0,0,0,0-1.32Z" transform="translate(-29.9 -11.39)"/><path d="M144.76,101.71h-2.1a.66.66,0,1,0,0,1.32h2.1a.66.66,0,1,0,0-1.32Z" transform="translate(-29.9 -11.39)"/><path d="M139.81,99h-2.1a.66.66,0,1,0,0,1.31h2.1a.66.66,0,0,0,0-1.31Z" transform="translate(-29.9 -11.39)"/><path d="M144.76,99h-2.1a.66.66,0,1,0,0,1.31h2.1a.66.66,0,1,0,0-1.31Z" transform="translate(-29.9 -11.39)"/><path d="M165.28,103.32A2.3,2.3,0,1,0,163,101,2.3,2.3,0,0,0,165.28,103.32Zm0-3.28a1,1,0,1,1-1,1A1,1,0,0,1,165.28,100Z" transform="translate(-29.9 -11.39)"/><path d="M156.46,103.32a2.3,2.3,0,1,0-2.3-2.3A2.3,2.3,0,0,0,156.46,103.32Zm0-3.28a1,1,0,1,1-1,1A1,1,0,0,1,156.46,100Z" transform="translate(-29.9 -11.39)"/><path d="M139.81,114.14h-2.1a.67.67,0,0,0-.66.66.66.66,0,0,0,.66.65h2.1a.65.65,0,0,0,.65-.65A.66.66,0,0,0,139.81,114.14Z" transform="translate(-29.9 -11.39)"/><path d="M144.76,114.14h-2.1a.67.67,0,0,0-.66.66.66.66,0,0,0,.66.65h2.1a.66.66,0,0,0,.66-.65A.67.67,0,0,0,144.76,114.14Z" transform="translate(-29.9 -11.39)"/><path d="M139.81,111.44h-2.1a.66.66,0,0,0,0,1.32h2.1a.66.66,0,0,0,0-1.32Z" transform="translate(-29.9 -11.39)"/><path d="M144.76,111.44h-2.1a.66.66,0,0,0,0,1.32h2.1a.66.66,0,0,0,0-1.32Z" transform="translate(-29.9 -11.39)"/><path d="M165.28,111.15a2.3,2.3,0,1,0,2.29,2.3A2.3,2.3,0,0,0,165.28,111.15Zm0,3.28a1,1,0,1,1,1-1A1,1,0,0,1,165.28,114.43Z" transform="translate(-29.9 -11.39)"/><path d="M156.46,111.15a2.3,2.3,0,1,0,2.29,2.3A2.3,2.3,0,0,0,156.46,111.15Zm0,3.28a1,1,0,1,1,1-1A1,1,0,0,1,156.46,114.43Z" transform="translate(-29.9 -11.39)"/><line class="a" x1="149.44" y1="90.3" x2="199.44" y2="90.3"/><line class="a" x1="46.1" y1="89.61" x2="96.1" y2="89.61"/><line class="a" x1="123.1" y1="42.61" x2="123.1" y2="64.61"/><line class="a" x1="99.65" y1="114.74" x2="74.85" y2="134.02"/><line class="a" x1="170.12" y1="133.94" x2="145.32" y2="114.66"/></svg>