<?xml version="1.0" encoding="utf-8"?>
<!-- Generator: Adobe Illustrator 25.2.0, SVG Export Plug-In . SVG Version: 6.00 Build 0)  -->
<svg version="1.1" id="Layer_1" xmlns="http://www.w3.org/2000/svg" xmlns:xlink="http://www.w3.org/1999/xlink" x="0px" y="0px"
	 viewBox="0 0 655 346" style="enable-background:new 0 0 655 346;" xml:space="preserve">
<style type="text/css">
	.st0{fill:#E6E6E6;}
	.st1{font-family:'Helvetica';}
	.st2{font-size:13px;}
	.st3{fill:none;stroke:#000000;stroke-width:2;stroke-miterlimit:10;}
	.st4{fill:none;stroke:#000000;stroke-width:7;stroke-miterlimit:10;}
	.st5{fill:none;stroke:#000000;stroke-width:5;stroke-miterlimit:10;}
	.st6{fill:none;stroke:#000000;stroke-width:4;stroke-miterlimit:10;}
	.st7{font-family:'Helvetica-Bold';}
	.st8{fill:none;stroke:#00B9F2;stroke-width:7;stroke-miterlimit:10;}
	.st9{fill:none;stroke:#00B9F2;stroke-width:5;stroke-miterlimit:10;}
	.st10{fill:none;stroke:#00B9F2;stroke-width:2;stroke-miterlimit:10;}
	.st11{fill:none;stroke:#00B9F2;stroke-width:4;stroke-miterlimit:10;}
</style>
<rect x="12.1" y="151.4" class="st0" width="170" height="42"/>
<text transform="matrix(1 0 0 1 68.5166 176.3569)" class="st1 st2">Mein Text</text>
<rect x="469.1" y="148.4" class="st0" width="170" height="42"/>
<text transform="matrix(1 0 0 1 505.252 173.3569)" class="st1 st2">179ea2e983f7a5</text>
<g>
	<g>
		<path class="st3" d="M83.1,149.4c0-63.5,108.6-115,242.5-115c123.8,0,225.9,44,240.7,100.8"/>
		<g>
			<polygon points="555.6,133.8 568.1,149.4 575.4,130.8 			"/>
		</g>
	</g>
</g>
<circle class="st4" cx="273.4" cy="67.3" r="17.5"/>
<line class="st5" x1="290.9" y1="66.8" x2="394.9" y2="66.8"/>
<line class="st3" x1="358.9" y1="66.8" x2="358.9" y2="80.8"/>
<line class="st6" x1="362.9" y1="66.8" x2="362.9" y2="55.8"/>
<line class="st6" x1="342.9" y1="66.8" x2="342.9" y2="84.8"/>
<line class="st3" x1="326.9" y1="66.8" x2="326.9" y2="49.8"/>
<text transform="matrix(1 0 0 1 235.3485 22.3148)" class="st7 st2">mit private Key verschlüsseln</text>
<g>
	<g>
		<path class="st3" d="M569,195.7c0,63.5-108.6,115-242.5,115c-123.8,0-225.9-44-240.7-100.8"/>
		<g>
			<polygon points="96.4,211.3 84,195.7 76.7,214.3 			"/>
		</g>
	</g>
</g>
<g>
	<circle class="st8" cx="280.4" cy="277.6" r="17.5"/>
	<line class="st9" x1="297.9" y1="277.1" x2="401.9" y2="277.1"/>
	<line class="st10" x1="383.9" y1="277.1" x2="383.9" y2="291.1"/>
	<line class="st11" x1="369.9" y1="277.1" x2="369.9" y2="266.1"/>
	<line class="st11" x1="349.9" y1="277.1" x2="349.9" y2="295.1"/>
	<line class="st10" x1="333.9" y1="277.1" x2="333.9" y2="260.1"/>
</g>
<text transform="matrix(1 0 0 1 242.8669 333.9174)" class="st7 st2">mit public Key entschlüsseln</text>
</svg>
