<svg xmlns="http://www.w3.org/2000/svg" viewBox="0 0 278 190.94"><defs><style>.a{fill:none;stroke:#00b9f2;stroke-miterlimit:10;stroke-width:2px;}.b{fill:#00b9f2;}</style></defs><path d="M217.28,149.15H183.62a2.89,2.89,0,0,0-2.89,2.89v25.43a2.89,2.89,0,0,0,2.89,2.89H196l-.7,2.43a2.66,2.66,0,0,1-2.39,1.8h-4.35a.58.58,0,0,0,0,1.16h23.88a.58.58,0,0,0,0-1.16H208a2.66,2.66,0,0,1-2.39-1.8l-.7-2.43h12.33a2.89,2.89,0,0,0,2.89-2.89V152A2.89,2.89,0,0,0,217.28,149.15Zm-33.66,1.16h33.66A1.74,1.74,0,0,1,219,152v20.23H181.88V152A1.74,1.74,0,0,1,183.62,150.31Zm20.92,32.8a3.57,3.57,0,0,0,.88,1.48h-9.94a3.57,3.57,0,0,0,.88-1.48l.79-2.75h6.6Zm12.74-3.91H183.62a1.74,1.74,0,0,1-1.74-1.73v-4.05H219v4.05A1.74,1.74,0,0,1,217.28,179.2Z" transform="translate(-14.08 -2)"/><path d="M184.19,162.44v-9.82h32.52V170H184.19v-7.52a.58.58,0,0,0-1.15,0v8.09a.58.58,0,0,0,.58.58h33.66a.58.58,0,0,0,.58-.58V152a.58.58,0,0,0-.58-.58H183.62a.58.58,0,0,0-.58.58v10.4" transform="translate(-14.08 -2)"/><path d="M200.45,174.58a1.74,1.74,0,1,0,1.73,1.73A1.73,1.73,0,0,0,200.45,174.58Zm0,2.62a1.25,1.25,0,0,1-.89-.89.89.89,0,0,1,1.78,0A1.25,1.25,0,0,1,200.45,177.2Z" transform="translate(-14.08 -2)"/><path d="M169.73,11.39H136.07a2.89,2.89,0,0,0-2.89,2.89V39.7a2.89,2.89,0,0,0,2.89,2.89H148.4L147.7,45a2.67,2.67,0,0,1-2.39,1.8H141A.58.58,0,0,0,141,48h23.88a.58.58,0,1,0,0-1.16h-4.35A2.67,2.67,0,0,1,158.1,45l-.7-2.44h12.33a2.89,2.89,0,0,0,2.89-2.89V14.28A2.89,2.89,0,0,0,169.73,11.39Zm-33.66,1.16h33.66a1.73,1.73,0,0,1,1.74,1.73V34.5H134.33V14.28A1.73,1.73,0,0,1,136.07,12.55ZM157,45.34a3.54,3.54,0,0,0,.88,1.49h-9.94a3.54,3.54,0,0,0,.88-1.49l.79-2.75h6.6Zm12.74-3.9H136.07a1.74,1.74,0,0,1-1.74-1.74v-4h37.14v4A1.74,1.74,0,0,1,169.73,41.44Z" transform="translate(-14.08 -2)"/><path d="M136.64,24.68V14.86h32.52V32.19H136.64V24.68a.58.58,0,1,0-1.15,0v8.09a.58.58,0,0,0,.58.58h33.66a.58.58,0,0,0,.58-.58V14.28a.58.58,0,0,0-.58-.58H136.07a.58.58,0,0,0-.58.58v10.4" transform="translate(-14.08 -2)"/><path d="M152.9,36.81a1.74,1.74,0,1,0,1.73,1.74A1.73,1.73,0,0,0,152.9,36.81Zm0,2.62a1.24,1.24,0,0,1-.89-.88.89.89,0,0,1,1.78,0A1.24,1.24,0,0,1,152.9,39.43Z" transform="translate(-14.08 -2)"/><path d="M272.46,82.72H238.79a2.9,2.9,0,0,0-2.89,2.89V111a2.9,2.9,0,0,0,2.89,2.89h12.33l-.69,2.43a2.67,2.67,0,0,1-2.4,1.8h-4.35a.58.58,0,0,0,0,1.16h23.89a.58.58,0,0,0,0-1.16h-4.36a2.67,2.67,0,0,1-2.39-1.8l-.69-2.43h12.33a2.9,2.9,0,0,0,2.89-2.89V85.61A2.9,2.9,0,0,0,272.46,82.72Zm-33.67,1.16h33.67a1.74,1.74,0,0,1,1.73,1.73v20.23H237.06V85.61A1.73,1.73,0,0,1,238.79,83.88Zm20.92,32.8a3.48,3.48,0,0,0,.89,1.48h-10a3.59,3.59,0,0,0,.89-1.48l.78-2.75h6.6Zm12.75-3.91H238.79a1.73,1.73,0,0,1-1.73-1.73V107h37.13V111A1.74,1.74,0,0,1,272.46,112.77Z" transform="translate(-14.08 -2)"/><path d="M239.37,96V86.19h32.51v17.34H239.37V96a.58.58,0,0,0-1.16,0v8.09a.58.58,0,0,0,.58.58h33.67a.58.58,0,0,0,.58-.58V85.61a.58.58,0,0,0-.58-.58H238.79a.58.58,0,0,0-.58.58V96" transform="translate(-14.08 -2)"/><path d="M255.62,108.15a1.74,1.74,0,1,0,1.74,1.73A1.74,1.74,0,0,0,255.62,108.15Zm0,2.62a1.24,1.24,0,0,1-.88-.89,1.23,1.23,0,0,1,.88-.88,1.24,1.24,0,0,1,.89.88A1.25,1.25,0,0,1,255.62,110.77Z" transform="translate(-14.08 -2)"/><path d="M66.46,82.72H32.79a2.9,2.9,0,0,0-2.89,2.89V111a2.9,2.9,0,0,0,2.89,2.89H45.12l-.69,2.43a2.67,2.67,0,0,1-2.4,1.8H37.68a.58.58,0,0,0,0,1.16H61.57a.58.58,0,0,0,0-1.16H57.21a2.67,2.67,0,0,1-2.39-1.8l-.69-2.43H66.46A2.9,2.9,0,0,0,69.35,111V85.61A2.9,2.9,0,0,0,66.46,82.72ZM32.79,83.88H66.46a1.74,1.74,0,0,1,1.73,1.73v20.23H31.06V85.61A1.73,1.73,0,0,1,32.79,83.88Zm20.92,32.8a3.48,3.48,0,0,0,.89,1.48h-10a3.59,3.59,0,0,0,.89-1.48l.78-2.75h6.6Zm12.75-3.91H32.79A1.73,1.73,0,0,1,31.06,111V107H68.19V111A1.74,1.74,0,0,1,66.46,112.77Z" transform="translate(-14.08 -2)"/><path d="M33.37,96V86.19H65.88v17.34H33.37V96a.58.58,0,0,0-1.16,0v8.09a.58.58,0,0,0,.58.58H66.46a.58.58,0,0,0,.58-.58V85.61a.58.58,0,0,0-.58-.58H32.79a.58.58,0,0,0-.58.58V96" transform="translate(-14.08 -2)"/><path d="M49.62,108.15a1.74,1.74,0,1,0,1.74,1.73A1.74,1.74,0,0,0,49.62,108.15Zm0,2.62a1.24,1.24,0,0,1-.88-.89,1.23,1.23,0,0,1,.88-.88,1.24,1.24,0,0,1,.89.88A1.25,1.25,0,0,1,49.62,110.77Z" transform="translate(-14.08 -2)"/><path d="M119.46,150.39H85.79a2.9,2.9,0,0,0-2.89,2.89V178.7a2.89,2.89,0,0,0,2.89,2.89H98.12L97.43,184a2.69,2.69,0,0,1-2.4,1.8H90.68a.58.58,0,0,0,0,1.16h23.89a.58.58,0,0,0,0-1.16h-4.36a2.69,2.69,0,0,1-2.39-1.8l-.69-2.44h12.33a2.89,2.89,0,0,0,2.89-2.89V153.28A2.9,2.9,0,0,0,119.46,150.39Zm-33.67,1.16h33.67a1.73,1.73,0,0,1,1.73,1.73V173.5H84.06V153.28A1.72,1.72,0,0,1,85.79,151.55Zm20.92,32.79a3.46,3.46,0,0,0,.89,1.49H97.65a3.56,3.56,0,0,0,.89-1.49l.78-2.75h6.6Zm12.75-3.9H85.79a1.73,1.73,0,0,1-1.73-1.74v-4h37.13v4A1.74,1.74,0,0,1,119.46,180.44Z" transform="translate(-14.08 -2)"/><path d="M86.37,163.68v-9.82h32.51v17.33H86.37v-7.51a.58.58,0,0,0-1.16,0v8.09a.58.58,0,0,0,.58.58h33.67a.58.58,0,0,0,.58-.58V153.28a.58.58,0,0,0-.58-.58H85.79a.58.58,0,0,0-.58.58v10.4" transform="translate(-14.08 -2)"/><path d="M102.62,175.81a1.74,1.74,0,1,0,1.74,1.74A1.74,1.74,0,0,0,102.62,175.81Zm0,2.62a1.23,1.23,0,0,1-.88-.88,1.24,1.24,0,0,1,.88-.89,1.25,1.25,0,0,1,.89.89A1.24,1.24,0,0,1,102.62,178.43Z" transform="translate(-14.08 -2)"/><line class="a" x1="164.92" y1="23.31" x2="241.92" y2="74.31"/><line class="a" x1="241.92" y1="123.31" x2="214.92" y2="163.31"/><line class="a" x1="159.92" y1="165" x2="114.92" y2="165"/><line class="a" x1="88.92" y1="143.5" x2="136.92" y2="54.5"/><line class="a" x1="112.92" y1="146.49" x2="215.92" y2="106.49"/><line class="a" x1="111.47" y1="23.31" x2="34.47" y2="74.31"/><line class="a" x1="34.47" y1="123.31" x2="61.47" y2="163.31"/><line class="a" x1="61.92" y1="98" x2="214.92" y2="98"/><line class="a" x1="189.11" y1="143.5" x2="141.11" y2="54.5"/><line class="a" x1="164.61" y1="146.49" x2="61.61" y2="106.49"/><path class="b" d="M235.58,181.9a13.4,13.4,0,0,1-5.29-1c-1.43-.65-2.21-1.53-2.21-2.48s.78-1.84,2.21-2.48a14.88,14.88,0,0,1,10.57,0c1.43.64,2.22,1.52,2.22,2.48s-.79,1.83-2.22,2.48A13.38,13.38,0,0,1,235.58,181.9Zm0-5.89a12.6,12.6,0,0,0-4.73.82c-1.1.47-1.76,1.07-1.76,1.62s.66,1.15,1.76,1.62a14,14,0,0,0,9.45,0c1.1-.47,1.76-1.07,1.76-1.62s-.66-1.15-1.76-1.62A12.58,12.58,0,0,0,235.58,176Z" transform="translate(-14.08 -2)"/><path class="b" d="M235.58,175.14c-4.13,0-7.37,1.45-7.37,3.31s3.24,3.31,7.37,3.31,7.36-1.45,7.36-3.31S239.7,175.14,235.58,175.14Zm0,5.88c-3.91,0-6.63-1.35-6.63-2.57s2.72-2.58,6.63-2.58,6.62,1.36,6.62,2.58S239.48,181,235.58,181Z" transform="translate(-14.08 -2)"/><path class="b" d="M235.58,185.58a13.4,13.4,0,0,1-5.29-1c-1.43-.64-2.21-1.52-2.21-2.48a.5.5,0,0,1,.5-.51.51.51,0,0,1,.51.51c0,.55.66,1.15,1.76,1.62a14,14,0,0,0,9.45,0c1.1-.47,1.76-1.07,1.76-1.62a.51.51,0,0,1,.51-.51.55.55,0,0,1,.36.15.53.53,0,0,1,.15.36c0,1-.79,1.84-2.22,2.48A13.38,13.38,0,0,1,235.58,185.58Z" transform="translate(-14.08 -2)"/><path class="b" d="M242.57,181.76a.38.38,0,0,0-.37.37c0,1.22-2.72,2.58-6.62,2.58s-6.63-1.36-6.63-2.58a.37.37,0,1,0-.74,0c0,1.86,3.24,3.31,7.37,3.31s7.36-1.45,7.36-3.31A.38.38,0,0,0,242.57,181.76Z" transform="translate(-14.08 -2)"/><path class="b" d="M235.58,189.26a13.22,13.22,0,0,1-5.29-1c-1.43-.64-2.21-1.52-2.21-2.48a.5.5,0,0,1,.5-.51.51.51,0,0,1,.51.51c0,.55.66,1.15,1.76,1.62a14,14,0,0,0,9.45,0c1.1-.47,1.76-1.07,1.76-1.62a.51.51,0,0,1,.51-.51.55.55,0,0,1,.36.15.53.53,0,0,1,.15.36c0,1-.79,1.84-2.22,2.48A13.21,13.21,0,0,1,235.58,189.26Z" transform="translate(-14.08 -2)"/><path class="b" d="M242.57,185.44a.38.38,0,0,0-.37.37c0,1.22-2.72,2.58-6.62,2.58S229,187,229,185.81a.37.37,0,1,0-.74,0c0,1.86,3.24,3.31,7.37,3.31s7.36-1.45,7.36-3.31A.38.38,0,0,0,242.57,185.44Z" transform="translate(-14.08 -2)"/><path class="b" d="M235.58,192.94a13.22,13.22,0,0,1-5.29-1c-1.43-.64-2.21-1.52-2.21-2.48v-11a.5.5,0,0,1,.5-.51.51.51,0,0,1,.51.51v11c0,.55.66,1.15,1.76,1.62a14,14,0,0,0,9.45,0c1.1-.47,1.76-1.07,1.76-1.62v-11a.51.51,0,1,1,1,0v11c0,1-.79,1.84-2.22,2.48A13.21,13.21,0,0,1,235.58,192.94Z" transform="translate(-14.08 -2)"/><path class="b" d="M242.57,178.08a.37.37,0,0,0-.37.37v11c0,1.22-2.72,2.58-6.62,2.58s-6.63-1.36-6.63-2.58v-11a.37.37,0,0,0-.74,0v11c0,1.86,3.24,3.31,7.37,3.31s7.36-1.45,7.36-3.31v-11A.37.37,0,0,0,242.57,178.08Z" transform="translate(-14.08 -2)"/><path class="b" d="M68.58,180.9a13.4,13.4,0,0,1-5.29-1c-1.43-.65-2.21-1.53-2.21-2.48s.78-1.84,2.21-2.48a14.88,14.88,0,0,1,10.57,0c1.43.64,2.22,1.52,2.22,2.48s-.79,1.83-2.22,2.48A13.38,13.38,0,0,1,68.58,180.9Zm0-5.89a12.6,12.6,0,0,0-4.73.82c-1.1.47-1.76,1.07-1.76,1.62s.66,1.15,1.76,1.62a14,14,0,0,0,9.45,0c1.1-.47,1.76-1.07,1.76-1.62s-.66-1.15-1.76-1.62A12.58,12.58,0,0,0,68.58,175Z" transform="translate(-14.08 -2)"/><path class="b" d="M68.58,174.14c-4.13,0-7.37,1.45-7.37,3.31s3.24,3.31,7.37,3.31,7.36-1.45,7.36-3.31S72.7,174.14,68.58,174.14Zm0,5.88c-3.91,0-6.63-1.35-6.63-2.57s2.72-2.58,6.63-2.58,6.62,1.36,6.62,2.58S72.48,180,68.58,180Z" transform="translate(-14.08 -2)"/><path class="b" d="M68.58,184.58a13.4,13.4,0,0,1-5.29-1c-1.43-.64-2.21-1.52-2.21-2.48a.5.5,0,0,1,.5-.51.51.51,0,0,1,.51.51c0,.55.66,1.15,1.76,1.62a14,14,0,0,0,9.45,0c1.1-.47,1.76-1.07,1.76-1.62a.51.51,0,0,1,.51-.51.55.55,0,0,1,.36.15.53.53,0,0,1,.15.36c0,1-.79,1.84-2.22,2.48A13.38,13.38,0,0,1,68.58,184.58Z" transform="translate(-14.08 -2)"/><path class="b" d="M75.57,180.76a.38.38,0,0,0-.37.37c0,1.22-2.72,2.58-6.62,2.58S62,182.35,62,181.13a.37.37,0,0,0-.74,0c0,1.86,3.24,3.31,7.37,3.31s7.36-1.45,7.36-3.31A.38.38,0,0,0,75.57,180.76Z" transform="translate(-14.08 -2)"/><path class="b" d="M68.58,188.26a13.22,13.22,0,0,1-5.29-1c-1.43-.64-2.21-1.52-2.21-2.48a.5.5,0,0,1,.5-.51.51.51,0,0,1,.51.51c0,.55.66,1.15,1.76,1.62a14,14,0,0,0,9.45,0c1.1-.47,1.76-1.07,1.76-1.62a.51.51,0,0,1,.51-.51.55.55,0,0,1,.36.15.53.53,0,0,1,.15.36c0,1-.79,1.84-2.22,2.48A13.21,13.21,0,0,1,68.58,188.26Z" transform="translate(-14.08 -2)"/><path class="b" d="M75.57,184.44a.38.38,0,0,0-.37.37c0,1.22-2.72,2.58-6.62,2.58S62,186,62,184.81a.37.37,0,0,0-.74,0c0,1.86,3.24,3.31,7.37,3.31s7.36-1.45,7.36-3.31A.38.38,0,0,0,75.57,184.44Z" transform="translate(-14.08 -2)"/><path class="b" d="M68.58,191.94a13.22,13.22,0,0,1-5.29-1c-1.43-.64-2.21-1.52-2.21-2.48v-11a.5.5,0,0,1,.5-.51.51.51,0,0,1,.51.51v11c0,.55.66,1.15,1.76,1.62a14,14,0,0,0,9.45,0c1.1-.47,1.76-1.07,1.76-1.62v-11a.51.51,0,1,1,1,0v11c0,1-.79,1.84-2.22,2.48A13.21,13.21,0,0,1,68.58,191.94Z" transform="translate(-14.08 -2)"/><path class="b" d="M75.57,177.08a.37.37,0,0,0-.37.37v11c0,1.22-2.72,2.58-6.62,2.58S62,189.71,62,188.49v-11a.37.37,0,1,0-.74,0v11c0,1.86,3.24,3.31,7.37,3.31s7.36-1.45,7.36-3.31v-11A.37.37,0,0,0,75.57,177.08Z" transform="translate(-14.08 -2)"/><path class="b" d="M284.58,70.9a13.4,13.4,0,0,1-5.29-1c-1.43-.65-2.21-1.53-2.21-2.48s.78-1.84,2.21-2.48a14.88,14.88,0,0,1,10.57,0c1.43.64,2.22,1.52,2.22,2.48s-.79,1.83-2.22,2.48A13.38,13.38,0,0,1,284.58,70.9Zm0-5.89a12.6,12.6,0,0,0-4.73.82c-1.1.47-1.76,1.07-1.76,1.62s.66,1.15,1.76,1.62a14,14,0,0,0,9.45,0c1.1-.47,1.76-1.07,1.76-1.62s-.66-1.15-1.76-1.62A12.58,12.58,0,0,0,284.58,65Z" transform="translate(-14.08 -2)"/><path class="b" d="M284.58,64.14c-4.13,0-7.37,1.45-7.37,3.31s3.24,3.31,7.37,3.31,7.36-1.45,7.36-3.31S288.7,64.14,284.58,64.14Zm0,5.88c-3.91,0-6.63-1.35-6.63-2.57s2.72-2.58,6.63-2.58,6.62,1.36,6.62,2.58S288.48,70,284.58,70Z" transform="translate(-14.08 -2)"/><path class="b" d="M284.58,74.58a13.4,13.4,0,0,1-5.29-1c-1.43-.64-2.21-1.52-2.21-2.48a.5.5,0,0,1,.5-.51.51.51,0,0,1,.51.51c0,.55.66,1.15,1.76,1.62a14,14,0,0,0,9.45,0c1.1-.47,1.76-1.07,1.76-1.62a.51.51,0,0,1,.51-.51.55.55,0,0,1,.36.15.53.53,0,0,1,.15.36c0,1-.79,1.84-2.22,2.48A13.38,13.38,0,0,1,284.58,74.58Z" transform="translate(-14.08 -2)"/><path class="b" d="M291.57,70.76a.38.38,0,0,0-.37.37c0,1.22-2.72,2.58-6.62,2.58S278,72.35,278,71.13a.37.37,0,1,0-.74,0c0,1.86,3.24,3.31,7.37,3.31s7.36-1.45,7.36-3.31A.38.38,0,0,0,291.57,70.76Z" transform="translate(-14.08 -2)"/><path class="b" d="M284.58,78.26a13.22,13.22,0,0,1-5.29-1c-1.43-.64-2.21-1.52-2.21-2.48a.5.5,0,0,1,.5-.51.51.51,0,0,1,.51.51c0,.55.66,1.15,1.76,1.62a14,14,0,0,0,9.45,0c1.1-.47,1.76-1.07,1.76-1.62a.51.51,0,0,1,.51-.51.55.55,0,0,1,.36.15.53.53,0,0,1,.15.36c0,1-.79,1.84-2.22,2.48A13.21,13.21,0,0,1,284.58,78.26Z" transform="translate(-14.08 -2)"/><path class="b" d="M291.57,74.44a.38.38,0,0,0-.37.37c0,1.22-2.72,2.58-6.62,2.58S278,76,278,74.81a.37.37,0,0,0-.74,0c0,1.86,3.24,3.31,7.37,3.31s7.36-1.45,7.36-3.31A.38.38,0,0,0,291.57,74.44Z" transform="translate(-14.08 -2)"/><path class="b" d="M284.58,81.94a13.22,13.22,0,0,1-5.29-1c-1.43-.64-2.21-1.52-2.21-2.48v-11a.5.5,0,0,1,.5-.51.51.51,0,0,1,.51.51v11c0,.55.66,1.15,1.76,1.62a14,14,0,0,0,9.45,0c1.1-.47,1.76-1.07,1.76-1.62v-11a.51.51,0,1,1,1,0v11c0,1-.79,1.84-2.22,2.48A13.21,13.21,0,0,1,284.58,81.94Z" transform="translate(-14.08 -2)"/><path class="b" d="M291.57,67.08a.37.37,0,0,0-.37.37v11c0,1.22-2.72,2.58-6.62,2.58S278,79.71,278,78.49v-11a.37.37,0,1,0-.74,0v11c0,1.86,3.24,3.31,7.37,3.31s7.36-1.45,7.36-3.31v-11A.37.37,0,0,0,291.57,67.08Z" transform="translate(-14.08 -2)"/><path class="b" d="M21.58,69.9a13.4,13.4,0,0,1-5.29-1c-1.43-.65-2.21-1.53-2.21-2.48s.78-1.84,2.21-2.48a13.22,13.22,0,0,1,5.29-1,13.21,13.21,0,0,1,5.28,1c1.43.64,2.22,1.52,2.22,2.48s-.79,1.83-2.22,2.48A13.38,13.38,0,0,1,21.58,69.9Zm0-5.89a12.6,12.6,0,0,0-4.73.82c-1.1.47-1.76,1.07-1.76,1.62s.66,1.15,1.76,1.62a12.6,12.6,0,0,0,4.73.82,12.58,12.58,0,0,0,4.72-.82c1.1-.47,1.76-1.07,1.76-1.62s-.66-1.15-1.76-1.62A12.58,12.58,0,0,0,21.58,64Z" transform="translate(-14.08 -2)"/><path class="b" d="M21.58,63.14c-4.13,0-7.37,1.45-7.37,3.31s3.24,3.31,7.37,3.31,7.36-1.45,7.36-3.31S25.7,63.14,21.58,63.14Zm0,5.88C17.67,69,15,67.67,15,66.45s2.72-2.58,6.63-2.58,6.62,1.36,6.62,2.58S25.48,69,21.58,69Z" transform="translate(-14.08 -2)"/><path class="b" d="M21.58,73.58a13.4,13.4,0,0,1-5.29-1c-1.43-.64-2.21-1.52-2.21-2.48a.5.5,0,0,1,.5-.51.51.51,0,0,1,.51.51c0,.55.66,1.15,1.76,1.62a12.6,12.6,0,0,0,4.73.82,12.58,12.58,0,0,0,4.72-.82c1.1-.47,1.76-1.07,1.76-1.62a.51.51,0,0,1,.51-.51.55.55,0,0,1,.36.15.53.53,0,0,1,.15.36c0,1-.79,1.84-2.22,2.48A13.38,13.38,0,0,1,21.58,73.58Z" transform="translate(-14.08 -2)"/><path class="b" d="M28.57,69.76a.38.38,0,0,0-.37.37c0,1.22-2.72,2.58-6.62,2.58S15,71.35,15,70.13a.37.37,0,1,0-.74,0c0,1.86,3.24,3.31,7.37,3.31s7.36-1.45,7.36-3.31A.38.38,0,0,0,28.57,69.76Z" transform="translate(-14.08 -2)"/><path class="b" d="M21.58,77.26a13.22,13.22,0,0,1-5.29-1c-1.43-.64-2.21-1.52-2.21-2.48a.5.5,0,0,1,.5-.51.51.51,0,0,1,.51.51c0,.55.66,1.15,1.76,1.62a12.6,12.6,0,0,0,4.73.82,12.58,12.58,0,0,0,4.72-.82c1.1-.47,1.76-1.07,1.76-1.62a.51.51,0,0,1,.51-.51.55.55,0,0,1,.36.15.53.53,0,0,1,.15.36c0,1-.79,1.84-2.22,2.48A13.21,13.21,0,0,1,21.58,77.26Z" transform="translate(-14.08 -2)"/><path class="b" d="M28.57,73.44a.38.38,0,0,0-.37.37c0,1.22-2.72,2.58-6.62,2.58S15,75,15,73.81a.37.37,0,0,0-.74,0c0,1.86,3.24,3.31,7.37,3.31s7.36-1.45,7.36-3.31A.38.38,0,0,0,28.57,73.44Z" transform="translate(-14.08 -2)"/><path class="b" d="M21.58,80.94a13.22,13.22,0,0,1-5.29-1c-1.43-.64-2.21-1.52-2.21-2.48v-11a.5.5,0,0,1,.5-.51.51.51,0,0,1,.51.51v11c0,.55.66,1.15,1.76,1.62a12.6,12.6,0,0,0,4.73.82,12.58,12.58,0,0,0,4.72-.82c1.1-.47,1.76-1.07,1.76-1.62v-11a.51.51,0,1,1,1,0v11c0,1-.79,1.84-2.22,2.48A13.21,13.21,0,0,1,21.58,80.94Z" transform="translate(-14.08 -2)"/><path class="b" d="M28.57,66.08a.37.37,0,0,0-.37.37v11c0,1.22-2.72,2.58-6.62,2.58S15,78.71,15,77.49v-11a.37.37,0,1,0-.74,0v11c0,1.86,3.24,3.31,7.37,3.31s7.36-1.45,7.36-3.31v-11A.37.37,0,0,0,28.57,66.08Z" transform="translate(-14.08 -2)"/><path class="b" d="M184.58,8.9a13.4,13.4,0,0,1-5.29-1c-1.43-.65-2.21-1.53-2.21-2.48s.78-1.84,2.21-2.48a14.88,14.88,0,0,1,10.57,0c1.43.64,2.22,1.52,2.22,2.48s-.79,1.83-2.22,2.48A13.38,13.38,0,0,1,184.58,8.9Zm0-5.89a12.6,12.6,0,0,0-4.73.82c-1.1.47-1.76,1.07-1.76,1.62s.66,1.15,1.76,1.62a12.6,12.6,0,0,0,4.73.82,12.58,12.58,0,0,0,4.72-.82c1.1-.47,1.76-1.07,1.76-1.62s-.66-1.15-1.76-1.62A12.58,12.58,0,0,0,184.58,3Z" transform="translate(-14.08 -2)"/><path class="b" d="M184.58,2.14c-4.13,0-7.37,1.45-7.37,3.31s3.24,3.31,7.37,3.31,7.36-1.45,7.36-3.31S188.7,2.14,184.58,2.14Zm0,5.88C180.67,8,178,6.67,178,5.45s2.72-2.58,6.63-2.58,6.62,1.36,6.62,2.58S188.48,8,184.58,8Z" transform="translate(-14.08 -2)"/><path class="b" d="M184.58,12.58a13.4,13.4,0,0,1-5.29-1c-1.43-.64-2.21-1.52-2.21-2.48a.5.5,0,0,1,.5-.51.51.51,0,0,1,.51.51c0,.55.66,1.15,1.76,1.62a12.6,12.6,0,0,0,4.73.82,12.58,12.58,0,0,0,4.72-.82c1.1-.47,1.76-1.07,1.76-1.62a.51.51,0,0,1,.51-.51.55.55,0,0,1,.36.15.53.53,0,0,1,.15.36c0,1-.79,1.84-2.22,2.48A13.38,13.38,0,0,1,184.58,12.58Z" transform="translate(-14.08 -2)"/><path class="b" d="M191.57,8.76a.38.38,0,0,0-.37.37c0,1.22-2.72,2.58-6.62,2.58S178,10.35,178,9.13a.37.37,0,1,0-.74,0c0,1.86,3.24,3.31,7.37,3.31s7.36-1.45,7.36-3.31A.38.38,0,0,0,191.57,8.76Z" transform="translate(-14.08 -2)"/><path class="b" d="M184.58,16.26a13.22,13.22,0,0,1-5.29-1c-1.43-.64-2.21-1.52-2.21-2.48a.5.5,0,0,1,.5-.51.51.51,0,0,1,.51.51c0,.55.66,1.15,1.76,1.62a14,14,0,0,0,9.45,0c1.1-.47,1.76-1.07,1.76-1.62a.51.51,0,0,1,.51-.51.55.55,0,0,1,.36.15.53.53,0,0,1,.15.36c0,1-.79,1.84-2.22,2.48A13.21,13.21,0,0,1,184.58,16.26Z" transform="translate(-14.08 -2)"/><path class="b" d="M191.57,12.44a.38.38,0,0,0-.37.37c0,1.22-2.72,2.58-6.62,2.58S178,14,178,12.81a.37.37,0,1,0-.74,0c0,1.86,3.24,3.31,7.37,3.31s7.36-1.45,7.36-3.31A.38.38,0,0,0,191.57,12.44Z" transform="translate(-14.08 -2)"/><path class="b" d="M184.58,19.94a13.22,13.22,0,0,1-5.29-1c-1.43-.64-2.21-1.52-2.21-2.48v-11a.5.5,0,0,1,.5-.51.51.51,0,0,1,.51.51v11c0,.55.66,1.15,1.76,1.62a14,14,0,0,0,9.45,0c1.1-.47,1.76-1.07,1.76-1.62v-11a.51.51,0,1,1,1,0v11c0,1-.79,1.84-2.22,2.48A13.21,13.21,0,0,1,184.58,19.94Z" transform="translate(-14.08 -2)"/><path class="b" d="M191.57,5.08a.37.37,0,0,0-.37.37v11c0,1.22-2.72,2.58-6.62,2.58S178,17.71,178,16.49v-11a.37.37,0,1,0-.74,0v11c0,1.86,3.24,3.31,7.37,3.31s7.36-1.45,7.36-3.31v-11A.37.37,0,0,0,191.57,5.08Z" transform="translate(-14.08 -2)"/></svg>